<svg width="11" height="10" viewBox="0 0 11 10" fill="none" xmlns="http://www.w3.org/2000/svg">
    <path
        d="M10.8334 0.516667C10.7488 0.313042 10.587 0.151229 10.3834 0.0666666C10.2832 0.0239658 10.1756 0.00131666 10.0667 0H1.73337C1.51235 0 1.30039 0.0877975 1.14411 0.244078C0.987832 0.400358 0.900035 0.61232 0.900035 0.833333C0.900035 1.05435 0.987832 1.26631 1.14411 1.42259C1.30039 1.57887 1.51235 1.66667 1.73337 1.66667H8.05837L1.1417 8.575C1.06359 8.65247 1.0016 8.74464 0.959292 8.84618C0.916985 8.94773 0.895203 9.05666 0.895203 9.16667C0.895203 9.27668 0.916985 9.3856 0.959292 9.48715C1.0016 9.5887 1.06359 9.68086 1.1417 9.75833C1.21917 9.83644 1.31134 9.89844 1.41289 9.94074C1.51444 9.98305 1.62336 10.0048 1.73337 10.0048C1.84338 10.0048 1.9523 9.98305 2.05385 9.94074C2.1554 9.89844 2.24757 9.83644 2.32503 9.75833L9.23337 2.84167V9.16667C9.23337 9.38768 9.32116 9.59964 9.47744 9.75592C9.63372 9.9122 9.84569 10 10.0667 10C10.2877 10 10.4997 9.9122 10.656 9.75592C10.8122 9.59964 10.9 9.38768 10.9 9.16667V0.833333C10.8987 0.724436 10.8761 0.616852 10.8334 0.516667Z"
        fill="white" />
</svg>