<svg width="126" height="25" viewBox="0 0 126 25" fill="none" xmlns="http://www.w3.org/2000/svg">
    <path
        d="M16.0656 11.8453H8.06555C7.93422 11.8454 7.80417 11.8195 7.68283 11.7693C7.56149 11.719 7.45123 11.6454 7.35837 11.5525C7.2655 11.4597 7.19185 11.3494 7.1416 11.2281C7.09136 11.1067 7.06552 10.9767 7.06555 10.8453V7.84534C7.06555 6.51925 7.59234 5.24748 8.53002 4.3098C9.4677 3.37212 10.7395 2.84534 12.0656 2.84534C13.3916 2.84534 14.6634 3.37212 15.6011 4.3098C16.5388 5.24748 17.0656 6.51925 17.0656 7.84534V10.8453C17.0656 10.9767 17.0397 11.1067 16.9895 11.2281C16.9393 11.3494 16.8656 11.4597 16.7727 11.5525C16.6799 11.6454 16.5696 11.719 16.4483 11.7693C16.3269 11.8195 16.1969 11.8454 16.0656 11.8453ZM9.06555 9.84534H15.0656V7.84534C15.0656 7.04969 14.7495 6.28663 14.1869 5.72402C13.6243 5.16141 12.8612 4.84534 12.0656 4.84534C11.2699 4.84534 10.5068 5.16141 9.94423 5.72402C9.38162 6.28663 9.06555 7.04969 9.06555 7.84534V9.84534Z"
        fill="#E7B549" />
    <path
        d="M17.0656 9.84534H7.06555C5.4087 9.84534 4.06555 11.1885 4.06555 12.8453V19.8453C4.06555 21.5022 5.4087 22.8453 7.06555 22.8453H17.0656C18.7224 22.8453 20.0656 21.5022 20.0656 19.8453V12.8453C20.0656 11.1885 18.7224 9.84534 17.0656 9.84534Z"
        fill="#E7B549" />
    <path
        d="M32.6146 17.9503C32.1292 17.9503 31.6976 17.8477 31.3196 17.6423C30.9462 17.437 30.6569 17.1453 30.4516 16.7673C30.2509 16.3847 30.1669 15.932 30.1996 15.4093H30.6056C30.5682 15.8853 30.6406 16.2797 30.8226 16.5923C31.0046 16.9003 31.2589 17.1313 31.5856 17.2853C31.9122 17.4347 32.2692 17.5093 32.6566 17.5093C33.1279 17.5093 33.5362 17.4183 33.8816 17.2363C34.2316 17.0543 34.5046 16.8233 34.7006 16.5433C34.9012 16.2587 35.0132 15.9623 35.0366 15.6543C35.0786 15.211 34.9899 14.847 34.7706 14.5623C34.5512 14.273 34.2199 14.056 33.7766 13.9113L32.6636 13.4913C32.0102 13.2767 31.5272 13.0177 31.2146 12.7143C30.9066 12.4063 30.7806 11.9607 30.8366 11.3773C30.9019 10.7567 31.1586 10.2433 31.6066 9.83734C32.0546 9.42667 32.6822 9.22134 33.4896 9.22134C34.1802 9.22134 34.7099 9.39634 35.0786 9.74634C35.4472 10.0917 35.6409 10.5397 35.6596 11.0903H35.2116C35.2022 10.633 35.0389 10.2877 34.7216 10.0543C34.4042 9.81634 33.9749 9.69734 33.4336 9.69734C32.8036 9.69734 32.3019 9.86067 31.9286 10.1873C31.5599 10.5093 31.3569 10.92 31.3196 11.4193C31.2869 11.8253 31.3616 12.1427 31.5436 12.3713C31.7256 12.6 32.0382 12.789 32.4816 12.9383L33.9306 13.4143C34.4392 13.587 34.8452 13.8483 35.1486 14.1983C35.4519 14.5483 35.5756 15.036 35.5196 15.6613C35.4916 16.0393 35.3586 16.4033 35.1206 16.7533C34.8872 17.1033 34.5606 17.3903 34.1406 17.6143C33.7206 17.8383 33.2119 17.9503 32.6146 17.9503ZM39.4566 17.9503C38.9339 17.9503 38.4906 17.822 38.1266 17.5653C37.7626 17.304 37.4989 16.9237 37.3356 16.4243C37.1723 15.925 37.1256 15.3137 37.1956 14.5903C37.2656 13.8717 37.4289 13.2533 37.6856 12.7353C37.9469 12.2173 38.2829 11.8207 38.6936 11.5453C39.1043 11.2653 39.5663 11.1253 40.0796 11.1253C40.4109 11.1253 40.7003 11.1813 40.9476 11.2933C41.1996 11.4053 41.4119 11.564 41.5846 11.7693C41.7573 11.9747 41.8856 12.2197 41.9696 12.5043C42.0583 12.7843 42.1026 13.0947 42.1026 13.4353C42.1026 13.5987 42.0909 13.7877 42.0676 14.0023C42.0489 14.2123 42.0186 14.4153 41.9766 14.6113H37.3496L37.6926 14.4153C37.6319 14.9893 37.6483 15.512 37.7416 15.9833C37.8396 16.4547 38.0309 16.8303 38.3156 17.1103C38.6049 17.3903 39.0063 17.5303 39.5196 17.5303C40.0049 17.5303 40.4156 17.3973 40.7516 17.1313C41.0876 16.8607 41.3093 16.471 41.4166 15.9623H41.9206C41.8086 16.4197 41.6289 16.7953 41.3816 17.0893C41.1389 17.3833 40.8519 17.6003 40.5206 17.7403C40.1893 17.8803 39.8346 17.9503 39.4566 17.9503ZM37.6786 14.3313L37.4336 14.2473H41.9346L41.5916 14.2823C41.6569 13.797 41.6569 13.3467 41.5916 12.9313C41.5309 12.5113 41.3793 12.173 41.1366 11.9163C40.8986 11.6597 40.5463 11.5313 40.0796 11.5313C39.6083 11.5313 39.2046 11.6643 38.8686 11.9303C38.5373 12.1963 38.2736 12.5417 38.0776 12.9663C37.8816 13.391 37.7486 13.846 37.6786 14.3313ZM45.802 17.9503C45.3213 17.9503 44.892 17.8173 44.514 17.5513C44.1407 17.2807 43.8583 16.891 43.667 16.3823C43.4757 15.869 43.4127 15.253 43.478 14.5343C43.548 13.8203 43.7253 13.209 44.01 12.7003C44.2947 12.1917 44.647 11.802 45.067 11.5313C45.4917 11.2607 45.942 11.1253 46.418 11.1253C46.684 11.1253 46.9267 11.1673 47.146 11.2513C47.37 11.3307 47.5683 11.4473 47.741 11.6013C47.9183 11.7553 48.0677 11.9397 48.189 12.1543C48.3103 12.3643 48.4013 12.6023 48.462 12.8683L48 13.0293C47.902 12.5487 47.7037 12.1823 47.405 11.9303C47.111 11.6783 46.7657 11.5523 46.369 11.5523C45.9817 11.5523 45.6153 11.6737 45.27 11.9163C44.9293 12.1543 44.6423 12.4973 44.409 12.9453C44.1803 13.3887 44.038 13.9183 43.982 14.5343C43.9307 15.099 43.968 15.61 44.094 16.0673C44.2247 16.52 44.4393 16.8793 44.738 17.1453C45.0413 17.4067 45.424 17.5373 45.886 17.5373C46.3667 17.5373 46.782 17.388 47.132 17.0893C47.482 16.786 47.671 16.3473 47.699 15.7733H48.21C48.1773 16.2213 48.042 16.6087 47.804 16.9353C47.5707 17.2573 47.2767 17.507 46.922 17.6843C46.5673 17.8617 46.194 17.9503 45.802 17.9503ZM52.1124 17.9713C51.6411 17.9713 51.2514 17.871 50.9434 17.6703C50.6354 17.4697 50.4137 17.1803 50.2784 16.8023C50.1477 16.4197 50.1034 15.96 50.1454 15.4233L50.5304 11.2583H50.9924L50.6214 15.4303C50.5421 16.121 50.6331 16.6437 50.8944 16.9983C51.1604 17.3483 51.5897 17.5233 52.1824 17.5233C52.6444 17.5233 53.0457 17.3833 53.3864 17.1033C53.7271 16.8187 54.0001 16.45 54.2054 15.9973C54.4107 15.54 54.5367 15.0547 54.5834 14.5413L54.8914 11.2583H55.3534L54.7234 17.8453H54.2824L54.4224 16.3963C54.1704 16.877 53.8461 17.2597 53.4494 17.5443C53.0527 17.829 52.6071 17.9713 52.1124 17.9713ZM57.4732 17.8453L58.0892 11.2583H58.5512L58.4252 12.4623C58.6165 12.005 58.8475 11.6713 59.1182 11.4613C59.3889 11.2513 59.7295 11.1463 60.1402 11.1463C60.2475 11.1463 60.3759 11.158 60.5252 11.1813C60.6745 11.2 60.8169 11.242 60.9522 11.3073L60.8262 11.7623C60.6862 11.7017 60.5439 11.6527 60.3992 11.6153C60.2545 11.578 60.1099 11.5593 59.9652 11.5593C59.5732 11.5593 59.2559 11.7017 59.0132 11.9863C58.7752 12.271 58.5909 12.656 58.4602 13.1413C58.3342 13.622 58.2455 14.1657 58.1942 14.7723L57.9352 17.8453H57.4732ZM63.6832 17.9503C63.1605 17.9503 62.7172 17.822 62.3532 17.5653C61.9892 17.304 61.7255 16.9237 61.5622 16.4243C61.3988 15.925 61.3522 15.3137 61.4222 14.5903C61.4922 13.8717 61.6555 13.2533 61.9122 12.7353C62.1735 12.2173 62.5095 11.8207 62.9202 11.5453C63.3308 11.2653 63.7928 11.1253 64.3062 11.1253C64.6375 11.1253 64.9268 11.1813 65.1742 11.2933C65.4262 11.4053 65.6385 11.564 65.8112 11.7693C65.9838 11.9747 66.1122 12.2197 66.1962 12.5043C66.2848 12.7843 66.3292 13.0947 66.3292 13.4353C66.3292 13.5987 66.3175 13.7877 66.2942 14.0023C66.2755 14.2123 66.2452 14.4153 66.2032 14.6113H61.5762L61.9192 14.4153C61.8585 14.9893 61.8748 15.512 61.9682 15.9833C62.0662 16.4547 62.2575 16.8303 62.5422 17.1103C62.8315 17.3903 63.2328 17.5303 63.7462 17.5303C64.2315 17.5303 64.6422 17.3973 64.9782 17.1313C65.3142 16.8607 65.5358 16.471 65.6432 15.9623H66.1472C66.0352 16.4197 65.8555 16.7953 65.6082 17.0893C65.3655 17.3833 65.0785 17.6003 64.7472 17.7403C64.4158 17.8803 64.0612 17.9503 63.6832 17.9503ZM61.9052 14.3313L61.6602 14.2473H66.1612L65.8182 14.2823C65.8835 13.797 65.8835 13.3467 65.8182 12.9313C65.7575 12.5113 65.6058 12.173 65.3632 11.9163C65.1252 11.6597 64.7728 11.5313 64.3062 11.5313C63.8348 11.5313 63.4312 11.6643 63.0952 11.9303C62.7638 12.1963 62.5002 12.5417 62.3042 12.9663C62.1082 13.391 61.9752 13.846 61.9052 14.3313ZM70.8856 17.8453L71.6836 9.34034H73.8956C74.437 9.34034 74.8733 9.45234 75.2046 9.67634C75.5406 9.90034 75.7786 10.2037 75.9186 10.5863C76.0586 10.969 76.1053 11.403 76.0586 11.8883C75.9886 12.6023 75.732 13.1903 75.2886 13.6523C74.85 14.1097 74.2223 14.3383 73.4056 14.3383H71.6696L71.3336 17.8453H70.8856ZM71.6976 13.9183H73.4616C74.0916 13.9183 74.591 13.741 74.9596 13.3863C75.333 13.027 75.5476 12.5277 75.6036 11.8883C75.6596 11.2303 75.536 10.7147 75.2326 10.3413C74.9293 9.968 74.4673 9.78134 73.8466 9.78134H72.0756L71.6976 13.9183ZM79.1338 17.9503C78.7185 17.9503 78.3778 17.857 78.1118 17.6703C77.8458 17.4837 77.6545 17.248 77.5378 16.9633C77.4258 16.674 77.3838 16.3823 77.4118 16.0883C77.4678 15.617 77.6148 15.239 77.8528 14.9543C78.0908 14.6697 78.3802 14.462 78.7208 14.3313C79.0615 14.2007 79.4115 14.1353 79.7708 14.1353C80.0602 14.1353 80.3658 14.175 80.6878 14.2543C81.0098 14.329 81.3062 14.4457 81.5768 14.6043L81.6818 13.5543C81.7565 12.817 81.6585 12.2967 81.3878 11.9933C81.1218 11.69 80.7322 11.5383 80.2188 11.5383C79.9388 11.5383 79.6705 11.5827 79.4138 11.6713C79.1618 11.76 78.9495 11.907 78.7768 12.1123C78.6088 12.3177 78.5132 12.593 78.4898 12.9383H77.9508C77.9928 12.4717 78.1328 12.1077 78.3708 11.8463C78.6088 11.5803 78.8958 11.3937 79.2318 11.2863C79.5678 11.179 79.8992 11.1253 80.2258 11.1253C80.8418 11.1253 81.3295 11.3073 81.6888 11.6713C82.0528 12.0353 82.1928 12.6607 82.1088 13.5473L81.7028 17.8453H81.3248C81.3342 17.6167 81.3435 17.395 81.3528 17.1803C81.3668 16.961 81.3762 16.7393 81.3808 16.5153C81.1615 17.01 80.8372 17.374 80.4078 17.6073C79.9832 17.836 79.5585 17.9503 79.1338 17.9503ZM79.0708 17.5373C79.4628 17.5373 79.8525 17.4347 80.2398 17.2293C80.6318 17.024 80.9538 16.7253 81.2058 16.3333C81.4578 15.9413 81.5698 15.47 81.5418 14.9193C81.2198 14.812 80.9048 14.7303 80.5968 14.6743C80.2935 14.6137 79.9995 14.5833 79.7148 14.5833C79.2388 14.5833 78.8282 14.693 78.4828 14.9123C78.1422 15.127 77.9438 15.519 77.8878 16.0883C77.8505 16.485 77.9182 16.8257 78.0908 17.1103C78.2635 17.395 78.5902 17.5373 79.0708 17.5373ZM83.9424 21.2123C83.7137 21.2123 83.5037 21.1657 83.3124 21.0723C83.1257 20.979 82.9367 20.8483 82.7454 20.6803L82.8014 20.1553C82.9787 20.3747 83.163 20.531 83.3544 20.6243C83.5457 20.7177 83.7557 20.7643 83.9844 20.7643C84.297 20.7643 84.5607 20.6477 84.7754 20.4143C84.9947 20.181 85.1767 19.8917 85.3214 19.5463C85.4707 19.2057 85.5944 18.8767 85.6924 18.5593L85.9444 17.8453L84.0964 11.2723H84.5654L86.2174 17.0543L88.3454 11.2723H88.8074L85.9164 19.2803C85.7857 19.6397 85.627 19.9663 85.4404 20.2603C85.2537 20.5543 85.0367 20.7853 84.7894 20.9533C84.542 21.126 84.2597 21.2123 83.9424 21.2123ZM90.0396 17.8453L90.6556 11.2723H91.0406C91.0313 11.515 91.0173 11.76 90.9986 12.0073C90.9846 12.25 90.9729 12.4903 90.9636 12.7283C91.1876 12.2197 91.4909 11.8253 91.8736 11.5453C92.2563 11.2653 92.7043 11.1253 93.2176 11.1253C93.7496 11.1253 94.1883 11.277 94.5336 11.5803C94.8789 11.879 95.1006 12.313 95.1986 12.8823C95.4226 12.299 95.7283 11.8603 96.1156 11.5663C96.5029 11.2723 96.9556 11.1253 97.4736 11.1253C97.9169 11.1253 98.2996 11.2327 98.6216 11.4473C98.9483 11.662 99.1886 11.9817 99.3426 12.4063C99.4966 12.8263 99.5409 13.3443 99.4756 13.9603L99.1116 17.8453H98.6916L99.0696 13.9603C99.1443 13.195 99.0323 12.6023 98.7336 12.1823C98.4349 11.7623 97.9916 11.5523 97.4036 11.5523C96.9463 11.5523 96.5659 11.676 96.2626 11.9233C95.9593 12.166 95.7189 12.5043 95.5416 12.9383C95.3643 13.3677 95.2359 13.86 95.1566 14.4153L94.8486 17.8453H94.4286L94.7926 13.9603C94.8673 13.1623 94.7483 12.5627 94.4356 12.1613C94.1229 11.7553 93.6889 11.5523 93.1336 11.5523C92.4476 11.5523 91.9086 11.8323 91.5166 12.3923C91.1246 12.9523 90.8889 13.6687 90.8096 14.5413L90.5016 17.8453H90.0396ZM103.496 17.9503C102.973 17.9503 102.53 17.822 102.166 17.5653C101.802 17.304 101.538 16.9237 101.375 16.4243C101.211 15.925 101.165 15.3137 101.235 14.5903C101.305 13.8717 101.468 13.2533 101.725 12.7353C101.986 12.2173 102.322 11.8207 102.733 11.5453C103.143 11.2653 103.605 11.1253 104.119 11.1253C104.45 11.1253 104.739 11.1813 104.987 11.2933C105.239 11.4053 105.451 11.564 105.624 11.7693C105.796 11.9747 105.925 12.2197 106.009 12.5043C106.097 12.7843 106.142 13.0947 106.142 13.4353C106.142 13.5987 106.13 13.7877 106.107 14.0023C106.088 14.2123 106.058 14.4153 106.016 14.6113H101.389L101.732 14.4153C101.671 14.9893 101.687 15.512 101.781 15.9833C101.879 16.4547 102.07 16.8303 102.355 17.1103C102.644 17.3903 103.045 17.5303 103.559 17.5303C104.044 17.5303 104.455 17.3973 104.791 17.1313C105.127 16.8607 105.348 16.471 105.456 15.9623H105.96C105.848 16.4197 105.668 16.7953 105.421 17.0893C105.178 17.3833 104.891 17.6003 104.56 17.7403C104.228 17.8803 103.874 17.9503 103.496 17.9503ZM101.718 14.3313L101.473 14.2473H105.974L105.631 14.2823C105.696 13.797 105.696 13.3467 105.631 12.9313C105.57 12.5113 105.418 12.173 105.176 11.9163C104.938 11.6597 104.585 11.5313 104.119 11.5313C103.647 11.5313 103.244 11.6643 102.908 11.9303C102.576 12.1963 102.313 12.5417 102.117 12.9663C101.921 13.391 101.788 13.846 101.718 14.3313ZM107.895 17.8453L108.511 11.2723H108.896L108.819 12.7283C109.043 12.2197 109.346 11.8253 109.729 11.5453C110.112 11.2653 110.56 11.1253 111.073 11.1253C111.521 11.1253 111.906 11.2327 112.228 11.4473C112.55 11.662 112.786 11.9817 112.935 12.4063C113.089 12.8263 113.133 13.3443 113.068 13.9603L112.704 17.8453H112.284L112.648 13.9603C112.723 13.1623 112.604 12.5627 112.291 12.1613C111.978 11.7553 111.544 11.5523 110.989 11.5523C110.303 11.5523 109.764 11.8323 109.372 12.3923C108.98 12.9523 108.744 13.6687 108.665 14.5413L108.357 17.8453H107.895ZM116.875 17.9503C116.577 17.9503 116.322 17.8897 116.112 17.7683C115.907 17.647 115.758 17.4627 115.664 17.2153C115.571 16.968 115.543 16.6553 115.58 16.2773L116.014 11.5103L116.301 11.6503H114.866L114.95 11.2723H116.322L115.972 11.5873L116.21 9.34034H116.672L116.434 11.5873L116.154 11.2723H118.604L118.548 11.6503H116.105L116.448 11.5103L115.986 16.3053C115.949 16.7067 116.01 17.0123 116.168 17.2223C116.327 17.4277 116.567 17.5303 116.889 17.5303C117.085 17.5303 117.279 17.5047 117.47 17.4533C117.662 17.402 117.862 17.332 118.072 17.2433L118.1 17.6213C117.886 17.738 117.676 17.822 117.47 17.8733C117.265 17.9247 117.067 17.9503 116.875 17.9503ZM121.675 17.9503C121.138 17.9503 120.702 17.857 120.366 17.6703C120.03 17.4837 119.785 17.241 119.631 16.9423C119.482 16.639 119.412 16.317 119.421 15.9763H119.897C119.878 16.4663 120.044 16.8537 120.394 17.1383C120.749 17.4183 121.194 17.5583 121.731 17.5583C122.244 17.5583 122.69 17.4323 123.068 17.1803C123.446 16.9283 123.658 16.5923 123.705 16.1723C123.742 15.8317 123.649 15.5703 123.425 15.3883C123.201 15.2017 122.874 15.036 122.445 14.8913L121.472 14.5623C120.954 14.385 120.562 14.1587 120.296 13.8833C120.035 13.608 119.927 13.2487 119.974 12.8053C120.011 12.4787 120.123 12.1893 120.31 11.9373C120.497 11.6853 120.753 11.487 121.08 11.3423C121.407 11.1977 121.794 11.1253 122.242 11.1253C122.886 11.1253 123.39 11.27 123.754 11.5593C124.123 11.844 124.298 12.2057 124.279 12.6443H123.782C123.763 12.271 123.612 11.9933 123.327 11.8113C123.047 11.6247 122.683 11.5313 122.235 11.5313C121.838 11.5313 121.512 11.5943 121.255 11.7203C121.003 11.8463 120.812 12.005 120.681 12.1963C120.555 12.383 120.478 12.5743 120.45 12.7703C120.403 13.111 120.497 13.391 120.73 13.6103C120.963 13.8297 121.295 14.007 121.724 14.1423L122.634 14.4223C123.161 14.581 123.56 14.8027 123.831 15.0873C124.106 15.3673 124.218 15.729 124.167 16.1723C124.13 16.4897 124.008 16.7837 123.803 17.0543C123.602 17.325 123.322 17.542 122.963 17.7053C122.608 17.8687 122.179 17.9503 121.675 17.9503Z"
        fill="#424866" />
</svg>